<?xml version="1.0" standalone="no"?>
<!DOCTYPE svg PUBLIC "-//W3C//DTD SVG 1.1//EN" "http://www.w3.org/Graphics/SVG/1.1/DTD/svg11.dtd" >
<!--
2013-9-30: Created.
-->
<svg>
<metadata>
Created by iconfont
</metadata>
<defs>

<font id="iconfont" horiz-adv-x="1024" >
  <font-face
    font-family="iconfont"
    font-weight="500"
    font-stretch="normal"
    units-per-em="1024"
    ascent="896"
    descent="-128"
  />
    <missing-glyph />
    
    <glyph glyph-name="shouji" unicode="&#58937;" d="M-49.090984-71.816448M1040.852568-71.816448M148.97212-33.661184M493.7222-47.836416c-21.033984 21.03296-20.117504 56.697856 0 76.816384 11.430912 11.430912 24.233984 16.917504 38.864896 16.4608 14.631936-0.457728 27.32032-6.059008 37.951488-16.4608 10.85952-10.631168 16.233472-23.300096 16.003072-38.408192-0.228352-15.079424-5.486592-27.891712-16.003072-38.408192C549.962328-68.403456 515.212888-69.327104 493.7222-47.836416zM290.250328 644.426496c0 13.254656 10.059776 24.228864 24.233984 24.228864l435.749888 0c14.176256 0 24.233984-10.974208 24.233984-24.228864l0-484.21888c0-14.174208-10.057728-24.233984-24.233984-24.233984L314.484312 135.973632c-14.174208 0-24.233984 10.059776-24.233984 24.233984L290.250328 644.426496zM207.49884-123.729152c0-12.812288 10.974208-23.786496 24.225792-23.786496l601.271296 0c14.174208 0 24.690688 10.517504 24.690688 23.786496L857.686616 722.603776c0 12.807168-10.517504 23.781376-24.690688 23.781376L231.723608 746.385152c-13.251584 0-24.225792-10.512384-24.225792-23.781376L207.497816-123.729152zM915.755608-33.661184"  horiz-adv-x="1064" />

    
    <glyph glyph-name="86" unicode="&#58998;" d="M952.466 370.067l-26.929-26.929c1.043-11.806 1.781-23.655 1.781-35.722 0-229.018-186.314-415.333-415.333-415.333-158.169-0.016-295.71 89.057-365.821 219.559l145.813 0.652 0.072 23.654-183.794-0.738-0.058-13.225-0.695 0c0.188-0.449 0.493-0.941 0.681-1.391l-0.695-169.18 23.67 0.029 0.579 125.402C209.8-51.611 350.731-137.598 511.985-137.584c245.764 0.016 445 199.252 445.015 445C957 328.71 955.392 349.599 952.466 370.067zM511.985 707.931c158.198 0.015 295.739-89.072 365.821-219.56l-145.813-0.651-0.044-23.655 183.78 0.738 0.058 13.211 0.71 0c-0.218 0.464-0.492 0.928-0.71 1.405l0.71 169.178-23.685-0.058-0.564-125.403C814.2 651.596 673.269 737.583 512 737.583c-245.764 0-444.985-199.236-445-445-0.015-21.236 1.593-42.096 4.505-62.535l26.929 26.93c-1.043 11.762-1.782 23.596-1.782 35.619C96.667 521.602 282.996 707.931 511.985 707.931z"  horiz-adv-x="1024" />

    
    <glyph glyph-name="weibiaoti1" unicode="&#58905;" d="M97.842496 810.498467l0-795.340972 235.71331 0 0-225.655928 173.128708 225.112367 1.921984-2.48957 0 3.033131 418.962464 0L927.568961 810.498467 97.842496 810.498467zM374.157716 163.450567c0-7.657905-1.771829-10.000323-13.54398-15.285778-5.886076-2.372449-10.000323-4.144278-12.94336-4.144278-4.114247 0-5.285456 4.144278-5.285456 13.54398l0 5.886076c1.171209 35.316455 1.741798 63.575624 1.741798 92.405383l0 97.72087c-32.343386-38.259492-67.089251-72.404738-109.462991-109.493022l-8.228494 3.543658c74.747156 80.032612 136.550952 157.752837 193.63988 253.101258L285.866579 500.728714c-12.372772 0-29.430379-2.372449-39.430701-6.486696l-16.487018 21.772474c14.715189-1.171209 29.430379-2.342418 42.974359-2.342418l154.809799 0c12.342741 20.601265 24.114892 42.373739 36.487664 64.746833l31.772797-21.201885c3.543658-2.342418 5.315487-4.114247 5.315487-5.886076 0-1.741798-1.771829-2.943038-4.714867-4.114247-14.715189-4.714867-16.487018-5.886076-24.715512-18.228816-3.543658-5.315487-7.057285-10.600943-10.600943-15.315809l229.553952 0 25.886721 34.715835 35.316455-34.715835c4.114247-4.114247 5.886076-7.057285 5.886076-9.429734 0-2.342418-2.940035-3.513627-8.225491-3.513627l-296.676237 0c-28.829759-42.974359-54.71648-79.462023-80.633232-112.436059l0-133.607914c0-38.830081 0.60062-64.146213 1.771829-86.519308L374.157716 163.450567zM762.038096 310.602461l-163.038292 0 0-131.836085c0-21.802505-1.771829-24.712509-40.60191-43.574979-1.771829-1.171209-2.943038-1.171209-3.543658-1.171209-1.771829 0-2.342418 1.171209-2.943038 3.543658-7.657905 22.373094-14.715189 28.829759-71.804118 41.773119l0 7.657905c32.974037-3.513627 54.145891-5.886076 67.689871-5.886076 22.373094 0 23.544303 5.886076 23.544303 17.057607l0 112.436059-110.664231 0c-12.342741 0-29.430379-2.342418-39.430701-6.486696l-16.487018 21.802505c14.715189-1.20124 29.430379-2.372449 42.974359-2.372449l123.607591 0c0 21.201885-0.60062 49.461055-1.171209 61.233207l28.829759-15.315809 73.575947 57.088929-175.981653 0c-12.372772 0-29.430379-2.342418-39.430701-6.456665l-16.487018 21.772474c14.715189-1.171209 29.430379-2.372449 42.974359-2.372449l188.925013 0 25.316132 17.658227 28.25917-37.658872c1.771829-2.943038 2.940035-4.714867 2.940035-5.886076 0-1.771829-1.771829-1.771829-7.057285-1.771829-18.859467 0-38.259492-7.057285-123.037002-52.974682l0-35.316455 108.321813 0 22.943683 34.145246 34.145246-34.145246c4.114247-4.114247 6.456665-7.657905 6.456665-9.399703C770.86721 311.77367 767.924172 310.602461 762.038096 310.602461zM764.410545 603.73504l-175.411064 0c0-7.057285 1.171209-41.20253 1.171209-48.860435 0-11.772152-20.000645-15.886398-21.772474-15.886398-5.285456 0-8.228494 4.114247-8.228494 14.114569 0 7.657905 0.570589 42.373739 0.570589 50.632264l-139.493989 0c0-7.057285 1.171209-42.974359 1.171209-51.202853 0-8.258525-15.886398-15.315809-21.772474-15.315809-5.285456 0-8.228494 4.114247-8.228494 13.54398 0 7.657905 0.570589 44.716157 0.570589 52.974682L282.923541 603.73504c-11.772152 0-28.25917-2.372449-37.658872-6.486696l-15.886398 21.201885c14.114569-1.171209 28.229139-2.372449 41.172499-2.372449l122.436382 0 0 25.916752c0 15.285778-0.570589 32.944006-1.741798 53.545271l41.172499-19.400025c4.714867-2.372449 7.087316-4.144278 7.087316-5.886076 0-1.771829-1.771829-2.943038-18.258847-11.772152l0-42.40377 139.493989 0 0 21.201885c0 15.315809-0.570589 32.974037-1.771829 53.575302l40.631941-17.658227c3.513627-1.771829 5.886076-3.543658 5.886076-5.315487 0-2.342418-1.771829-3.513627-16.487018-12.342741l0-39.460732 114.778477 0 27.087961 37.688903 35.887044-35.917075c4.114247-4.114247 6.486696-7.657905 6.486696-10.000323C773.239659 604.906249 770.296621 603.73504 764.410545 603.73504z"  horiz-adv-x="1024" />

    
    <glyph glyph-name="servicequanguolianbao" unicode="&#983607;" d="M737.135038 349.397924c2.744507 3.815909 4.180206 8.258081 4.180206 12.80463 0 4.493338-1.411139 8.78099-4.180206 12.724813-2.979868 4.102435-7.290033 6.376221-12.17632 6.376221l-116.380614-0.445138c2.744507 27.803229 4.259 62.345953 4.466732 103.055121l103.919814-0.469698c4.858658 0 9.145287 2.300392 12.280698 6.480598 2.664689 3.920286 4.076852 8.15268 4.076852 12.725836 0 4.467755-1.438769 8.883321-4.207835 12.775978-3.00545 4.025687-7.291057 6.324032-12.149714 6.324032l-44.681642-0.418532c25.815969 43.113937 28.166503 52.546773 28.166503 57.877175 0 3.606131-1.254573 7.133468-3.76372 10.686387-2.5071 3.397377-5.799076 5.801123-10.006911 7.106862l-4.91187 0.731664c-3.056616 0-6.14086-0.783853-9.120728-2.403746-4.441149-2.403746-7.940856-6.740518-10.606569-12.960173-5.853311-12.646018-11.758812-24.327058-17.559934-35.171034-4.910846-9.039887-9.928117-17.689894-15.07637-25.868157l-65.191768 0c-3.188622 6.297426-6.402827 12.437264-9.590426 18.343787-4.129041 7.603165-8.284687 14.893198-12.410658 21.947871-12.125155 20.434401-15.392572 24.091698-17.034978 25.450648-5.122671 5.070482-10.426467 6.114255-13.929244 6.114255-7.550976 0-13.71742-3.369747-17.375739-9.458419-3.998057-6.794753-2.613524-15.077394 4.259-24.823362 9.301853-13.013385 17.402345-25.606191 24.092721-37.57478l-40.842197 0c-6.79373 1.358951-12.907984-0.810459-16.618493-5.957689-2.716878-3.814886-4.180206-8.257058-4.180206-12.724813 0-4.573155 1.358951-8.858762 4.180206-12.830213 3.659343-5.068436 9.562796-7.28901 16.566304-5.9055l92.5253 0c0.104377-20.825304-0.183172-40.08188-1.02126-57.380872-0.782829-16.723893-1.826602-32.007995-3.237741-45.674249l-98.561783 0c-6.296403 1.228991-12.018731-0.444115-15.781428-4.859681L455.25102 529.954163l13.690814 0c11.365862 0 18.735713 7.316639 18.735713 18.709107 0 11.654434-7.368828 19.178805-18.735713 19.178805L296.09416 567.842075c-11.394515 0-18.709107-7.52437-18.709107-19.178805 0-11.392468 7.314593-18.709107 18.709107-18.709107l11.834536 0 0-304.435641-17.349133-4.414543c-15.72924-4.025687-17.427928-15.051811-17.427928-19.597337 0-4.442172 1.619894-8.78099 4.624321-12.33391 3.502777-4.259 8.832156-6.321986 15.965623-6.321986 4.260024 0 13.823843 1.61887 52.154847 13.535271 14.555507 4.442172 28.794813 9.092076 42.695405 14.004969 9.460466 3.345188 18.86772 6.742565 28.299533 10.32209l0-65.219397c0-11.418051 7.52437-18.736736 19.178805-18.736736 8.389064 0 14.657838 3.868097 17.48114 10.242272 1.464351-1.724271 3.266393-3.186576 5.357008-4.336772 2.376117-1.304715 4.260024-2.142803 5.590322-2.560312l3.03001-0.49528c9.4093 0 24.327058 7.132444 69.347414 58.765405 26.444279 29.946033 45.571918 63.912635 56.964386 101.147678 18.080797-46.118364 39.637766-82.648348 64.357773-108.932991 41.310871-43.558052 55.368028-49.594535 64.407915-49.594535 5.514597 0 10.454096 2.821255 13.484106 7.759731 2.24718 3.63069 3.345188 7.05672 3.345188 10.504238 0 7.970532-5.120624 15.756869-15.417131 23.647583-47.579645 38.147832-83.483366 92.184539-106.791212 160.541393l107.732653-0.418532C729.845005 343.02375 734.155171 345.322096 737.135038 349.397924zM416.89034 260.663974c-23.829731-9.695826-47.477314-18.030655-70.628594-24.666796l0 83.509972 70.628594 0L416.89034 260.663974zM416.89034 356.45362l-70.628594 0 0 72.040756 70.628594 0L416.89034 356.45362zM416.89034 465.414241l-70.628594 0 0 64.539922 70.628594 0L416.89034 465.414241zM534.630928 260.819516c-15.625886-27.593452-39.639812-54.951543-71.622224-81.47257-3.238764-2.873444-5.826705-5.408173-7.759731-7.760754l0 64.463174c10.373255 4.703115 17.246803 8.151657 21.322631 10.791787 7.367805 4.727675 11.103896 10.373255 11.103896 16.669658 0 11.995195-7.865131 17.376763-15.651468 17.376763-2.874467 0-7.107885-0.680499-16.775059-4.259l0 71.724555c3.736091-4.389984 9.431813-6.115278 15.781428-4.910846l93.230358 0C557.963333 312.71342 548.00861 284.910191 534.630928 260.819516zM510.800173 821.743786c-241.123686 0-437.253622-196.155519-437.253622-437.279205 0-241.071498 196.129936-437.253622 437.253622-437.253622 241.09708 0 437.253622 196.182125 437.253622 437.253622C948.053796 625.58929 751.897254 821.743786 510.800173 821.743786zM510.800173 4.016733c-209.79619 0-380.447848 170.680311-380.447848 380.447848 0 209.82075 170.652681 380.473431 380.447848 380.473431 209.766514 0 380.447848-170.652681 380.447848-380.473431C891.248022 174.697043 720.566688 4.016733 510.800173 4.016733z"  horiz-adv-x="1024" />

    
    <glyph glyph-name="xiasanjiaoxing-copy" unicode="&#58909;" d="M259.542 545.374c-29.385 0-48.178-39.241-25.666-61.743l252.934-252.946c14.506-14.506 36.082-14.506 50.588 0l252.943 252.946c21.946 21.939 4.837 61.743-25.294 61.743h-505.505z"  horiz-adv-x="1024" />

    
    <glyph glyph-name="duoren" unicode="&#59165;" d="M523.52 297.6C593.28 343.68 640 422.4 640 512c0 141.44-114.56 256-256 256C242.56 768 128 653.44 128 512c0-89.6 46.72-168.32 116.48-214.4C101.76 250.88 0 130.56 0-32 0-49.92 14.08-64 32-64S64-49.92 64-32C64 144.64 207.36 256 384 256c176.64 0 320-111.36 320-288 0-17.92 14.08-32 32-32 17.92 0 32 14.08 32 32C768 130.56 666.24 250.88 523.52 297.6zM384 320C278.4 320 192 406.4 192 512s86.4 192 192 192c105.6 0 192-86.4 192-192S489.6 320 384 320zM804.48 293.76C878.08 339.2 928 419.2 928 512c0 141.44-114.56 256-256 256C654.08 768 640 753.92 640 736 640 718.08 654.08 704 672 704c105.6 0 192-86.4 192-192 0-71.04-38.4-132.48-96-165.76-56.32-34.56-71.68-83.2 0-109.44 111.36-39.68 192-144 192-269.44 0-17.92 14.08-32 32-32 17.92 0 32 14.08 32 32C1024 115.2 933.12 241.28 804.48 293.76z"  horiz-adv-x="1024" />

    
    <glyph glyph-name="zhifubao" unicode="&#58973;" d="M511.997-126.91c-69.032 0-136.015 13.527-199.087 40.204-60.903 25.765-115.601 62.637-162.565 109.601C103.383 69.853 66.509 124.551 40.746 185.46c-26.679 63.067-40.2 130.049-40.2 199.088 0 69.033 13.522 136.016 40.2 199.087 25.763 60.904 62.636 115.602 109.599 162.566C197.309 793.163 252.006 830.037 312.91 855.8 375.982 882.478 442.965 896 511.997 896c69.034 0 136.023-13.522 199.088-40.2 60.909-25.762 115.601-62.642 162.564-109.599 46.965-46.964 83.837-101.661 109.601-162.566 26.677-63.071 40.204-130.054 40.204-199.093 0-69.033-13.527-136.016-40.204-199.087-25.764-60.909-62.636-115.602-109.601-162.56-46.964-46.964-101.655-83.842-162.559-109.601C648.014-113.381 581.031-126.91 511.997-126.91L511.997-126.91zM511.997 860.97c-64.32 0-126.711-12.597-185.442-37.436-56.73-23.997-107.678-58.346-151.437-102.106-43.761-43.753-78.11-94.707-102.107-151.438-24.838-58.73-37.436-121.122-37.436-185.442 0-64.319 12.598-126.717 37.436-185.441 23.997-56.73 58.352-107.684 102.107-151.438 43.759-43.759 94.707-78.114 151.437-102.106 58.731-24.845 121.124-37.437 185.442-37.437 64.326 0 126.718 12.592 185.442 37.437 56.73 23.996 107.684 58.348 151.438 102.106 43.761 43.755 78.114 94.703 102.106 151.438 24.845 58.726 37.437 121.116 37.437 185.441 0 64.324-12.592 126.718-37.437 185.442-23.996 56.73-58.346 107.684-102.106 151.438-43.755 43.761-94.708 78.115-151.438 102.106C638.714 848.373 576.323 860.97 511.997 860.97L511.997 860.97zM607.874 331.052c53.033 96.426 72.318 188.025 72.318 188.025l-9.645 0 0 0L588.59 519.077l-86.78 0 0 67.5 212.132 0 0 28.924L501.81 615.501 501.81 716.746l-96.423 0 0-101.245L212.541 615.501l0-28.924 192.846 0 0-67.5-163.92 0 0-28.926 332.662 0c0-4.821-28.926-91.603-48.212-130.169-245.879 96.423-318.198 38.566-337.482 28.926C24.517 273.201 178.793 128.565 202.9 133.387c173.563-38.568 284.446 33.749 361.586 125.353 4.819-4.823 9.642-4.823 14.464-4.823 53.032-28.924 308.552-149.453 308.552-149.453l0 144.63C848.932 249.093 709.118 297.305 607.874 331.052L607.874 331.052zM482.524 287.663c-120.528-154.277-265.161-106.065-289.269-96.422-57.852 14.463-77.137 120.529-4.822 154.277 120.528 38.565 226.595-4.822 303.735-43.393C487.346 292.485 482.524 287.663 482.524 287.663L482.524 287.663z"  horiz-adv-x="1024" />

    
    <glyph glyph-name="weibo" unicode="&#58928;" d="M445.146218 221.098446C344.252711 216.374421 262.697586 266.973207 262.697586 334.291288 262.697586 401.684004 344.252711 455.743577 445.146218 460.402645 546.093627 465.050657 627.820134 423.452127 627.820134 356.183796 627.820134 288.860186 546.093627 225.671825 445.146218 221.098446M659.97061 439.821751C635.993891 444.469763 647.650545 457.373075 647.650545 457.373075 647.650545 457.373075 671.092392 496.023582 643.002533 524.113441 608.190127 558.914791 523.612345 519.681037 523.612345 519.681037 491.30569 509.660791 499.856761 524.265472 504.42461 549.104623 504.42461 578.372034 494.404364 627.934242 408.331145 598.661304 322.369877 569.243245 248.551764 466.135608 248.551764 466.135608 197.209407 397.646884 204.017646 344.705434 204.017646 344.705434 216.822829 227.809941 341.018591 195.72995 437.61376 188.133914 539.252221 180.164707 676.399669 223.166074 718.002344 311.501794 759.589819 400.006134 684.00676 435.021708 659.97061 439.821751M459.247814 333.556009C452.816889 328.75735 444.908498 329.415231 441.53893 335.181365 437.992455 340.780263 439.320655 349.774987 445.809628 354.499016 453.324123 360.10206 461.153736 358.487763 464.538505 352.87366 467.923274 347.129641 465.499067 338.502557 459.247814 333.556009M399.417965 282.607553C380.467953 280.378223 365.199862 291.299599 365.199862 307.161993 365.199862 322.931785 378.77764 339.463118 397.733181 341.439524 419.484715 343.512678 433.64574 330.964566 433.64574 315.120141 433.64574 299.34482 418.286433 284.745665 399.417965 282.607553M425.013126 415.997063C323.552957 404.124801 335.273189 309.077587 335.273189 309.077587 335.273189 309.077587 334.232466 278.974005 362.478503 263.652012 421.849494 231.486332 482.970228 250.954633 513.878194 290.851797 544.770956 330.743431 526.635001 427.804368 425.013126 415.997063M709.36973 480.966953C717.549016 480.966953 724.492701 487.023329 725.674397 494.901314 725.815372 495.499766 725.880333 496.023582 725.880333 496.677317 738.275031 608.098302 634.591057 588.921625 634.591057 588.921625 625.375196 588.921625 618.005821 581.476237 618.005821 572.185742 618.005821 563.038984 625.375196 555.58945 634.591057 555.58945 709.072579 572.03371 692.622792 497.561861 692.622792 497.561861 692.622792 488.347384 700.138668 480.966953 709.36973 480.966953M697.287389 675.459231C661.434259 683.855505 624.570811 676.60914 614.221626 674.634115 613.432446 674.552571 612.676433 673.807618 611.953595 673.65144 611.591482 673.586481 611.370347 673.218842 611.370347 673.218842 601.177339 670.341304 593.743007 660.904306 593.743007 649.765939 593.743007 636.496369 604.502677 625.579139 617.924278 625.579139 617.924278 625.579139 630.983769 627.328881 639.822316 630.795195 648.595905 634.320939 722.856289 633.423955 759.730794 571.483633 779.862505 526.284724 768.584545 496.023582 767.185857 491.159962 767.185857 491.159962 762.392725 479.421764 762.392725 467.852179 762.392725 454.501065 773.152395 446.111701 786.497982 446.111701 797.636347 446.111701 807.008388 447.644454 809.735277 466.492191L809.874868 466.492191C849.47488 598.466427 761.430782 660.477236 697.287389 675.459231M511.996538 894.651452C238.349895 894.651452 16.493931 672.80104 16.493931 399.191869 16.493931 125.491101 238.345732-96.31629 511.996538-96.31629 785.654285-96.31629 1007.506085 125.491101 1007.506085 399.191869 1007.506085 672.80104 785.654285 894.651452 511.996538 894.651452M511.240469 868.11292C769.41386 868.11292 979.454028 658.115711 979.454028 399.947865 979.454028 141.731516 769.41386-68.292023 511.240469-68.292023 253.029665-68.292023 42.989498 141.731516 42.989498 399.947865 42.989498 658.115711 253.029665 868.11292 511.240469 868.11292"  horiz-adv-x="1024" />

    
    <glyph glyph-name="password" unicode="&#58896;" d="M720.741 450.879v104.425c0 0 2.6 208.851-208.852 208.851-208.876 0-208.851-208.851-208.851-208.851v-104.425h-78.32v-417.702h574.341v417.702h-78.319zM537.996 242.029v-104.426h-52.212l0 104.426c-22.078 0-26.107 29.51-26.107 52.212 0 25.481 19.070 52.238 52.212 52.238 33.921 0 52.239-24.779 52.212-52.238 0.001-32.174-6.832-52.212-26.106-52.212M668.528 450.879h-313.277v104.425c0.293 25.24 5.749 156.639 156.637 156.639 145.599 0 156.345-131.794 156.639-156.639v-104.425z"  horiz-adv-x="1024" />

    
    <glyph glyph-name="bingxiang" unicode="&#58887;" d="M760.535 823.142h-495.53c-13.626 0-24.774-11.148-24.774-24.773V524.91c0-10.788 8.745-19.532 19.531-21.629h506.013c10.788 2.097 19.532 10.841 19.532 21.629V798.369c0 13.625-11.148 24.773-24.772 24.773z m-25.397-266.571c0-7.069-5.729-12.798-12.797-12.798h-22.523c-7.068 0-12.798 5.73-12.798 12.798v20.475c0 7.069 5.73 12.798 12.798 12.798s12.797 5.729 12.797 12.797v67.57c0 7.068-5.729 12.797-12.797 12.797-7.068 0-12.798 5.73-12.798 12.798V716.28c0 7.069 5.73 12.798 12.798 12.798h22.523c7.068 0 12.797-5.73 12.797-12.798v-159.71z m30.637-68.721H259.762c-10.787 0-19.531-8.745-19.531-19.532v-498.686c0-13.625 11.148-24.772 24.773-24.772h495.53c13.626 0 24.774 11.148 24.774 24.772V468.318c0 10.787-8.745 19.532-19.533 19.532z m-30.637-201.557c0-7.067-5.729-12.798-12.797-12.798h-22.523c-7.068 0-12.798 5.73-12.798 12.798v20.476c0 7.068 5.73 12.797 12.798 12.797s12.797 5.73 12.797 12.797v44.022c0 7.068-5.729 12.797-12.797 12.797-7.068 0-12.798 5.73-12.798 12.798v20.475c0 7.069 5.73 12.798 12.798 12.798h22.523c7.068 0 12.797-5.73 12.797-12.798v-136.162z"  horiz-adv-x="1024" />

    
    <glyph glyph-name="icon-test" unicode="&#58897;" d="M529.302638 754.932152l40.824356-20.315933c6.46174-3.216024 6.46174-8.47777 0-11.69277l-40.824356-20.315933-20.315933-40.824356c-3.216024-6.46174-8.47777-6.46174-11.69277 0l-20.315933 40.824356-40.824355 20.315933c-6.46174 3.216024-6.46174 8.47777 0 11.69277l40.824355 20.315933 20.315933 40.824355c3.216024 6.46174 8.47777 6.46174 11.69277 0l20.315933-40.824355zM774.580511 161.76569c0-14.426544-11.694818-26.121362-26.121362-26.121362H435.174812c-14.426544 0-26.121362 11.694818-26.121362 26.121362V423.856784c0 14.426544 11.694818 26.121362 26.121362 26.121362h313.284337c14.426544 0 26.121362-11.694818 26.121362-26.121362v-262.091094zM842.71496 398.78388h-29.226807v-103.412418h29.226807c14.406067 0 24.01523 7.588014 24.01523 21.991009v52.241701c0 14.402995-9.609164 29.179708-24.01523 29.179708zM842.71496 254.416049h-29.226807v-104.436303h29.226807c14.406067 0 24.01523 9.313261 24.01523 23.716256v52.241701c0 14.402995-9.609164 28.478346-24.01523 28.478346zM258.542307 202.197898h26.621019v-52.218152h-26.621019zM310.760459 202.197898h26.621018v-52.218152h-26.621018zM258.542307 437.691523h26.621019v-53.242037h-26.621019zM258.542307 319.94471h26.621019v-51.194266h-26.621019zM310.760459 319.94471h26.621018v-51.194266h-26.621018zM310.760459 437.691523h26.621018v-53.242037h-26.621018zM777.411554 516.530693H617.926056V552.452685c0 20.537092-14.509479 37.400483-34.637016 39.021294L688.455373 706.946742c4.839906 5.347753 4.770282 13.609484-0.579519 18.446318-5.350825 4.847073-13.430304 5.784952-18.277377 0.434127L549.584783 594.345977H456.696882L336.509127 725.827187c-4.847073 5.350825-13.098565 5.083591-18.44939 0.243685-5.350825-4.836834-5.765498-13.437471-0.924568-18.785224l102.894332-115.642728c-20.127538-1.62081-37.597069-18.653143-37.597069-39.191259v-35.921992H228.868063c-36.005951 0-68.618747-32.554434-68.618747-68.563457v-352.635321c0-36.009023 32.612795-62.076119 68.618747-62.07612h15.33985v-29.348648c0-21.606028 21.827187-37.203897 43.433215-37.203898h104.484426c21.606028 0 35.357832 15.597869 35.357832 37.203898v29.348648h145.391716v-29.348648c0-21.606028 19.673957-37.203897 41.279985-37.203898h104.484425c21.606028 0 37.511063 15.597869 37.511063 37.203898v29.348648h21.260979c36.005951 0 62.697618 26.067096 62.697618 62.07612v352.636345c0 36.009023-26.691667 68.563457-62.697618 68.563457z m-368.358104 35.920968c0 7.203033 8.522821 15.272274 15.722783 15.272274h156.727151c7.199962 0 9.801654-8.06924 9.801654-15.272274v-35.921992h-182.251588v35.921992z m-8.191083-548.543491c0-7.203033-1.536852-10.582879-8.736813-10.582878H287.641128c-7.199962 0-16.812197 3.379845-16.812197 10.582878v29.348649h130.033436v-29.348649z m328.66719 0c0-7.203033-3.690083-10.582879-10.890045-10.582878H614.155087c-7.199962 0-14.658966 3.379845-14.658967 10.582878v29.348649h130.033437v-29.348649z m83.958596 91.423745c0-21.606028-14.470571-35.455101-36.076599-35.455101H228.868063c-21.606028 0-41.997728 13.849073-41.997728 35.455101V447.967236c0 21.606028 20.3917 41.942438 41.997728 41.942438h548.544515c21.606028 0 36.076599-20.33641 36.076599-41.942438v-352.635321zM679.457469 405.520022c-16.204009 0-29.386533-13.1815-29.386533-29.386533s13.1815-29.386533 29.386533-29.386533 29.386533 13.1815 29.386532 29.386533-13.1815 29.386533-29.386532 29.386533zM594.564065 405.520022c-16.205033 0-29.386533-13.1815-29.386533-29.386533s13.1815-29.386533 29.386533-29.386533 29.386533 13.1815 29.386533 29.386533-13.1815 29.386533-29.386533 29.386533zM509.670661 405.520022c-16.205033 0-29.386533-13.1815-29.386533-29.386533s13.1815-29.386533 29.386533-29.386533c16.204009 0 29.386533 13.1815 29.386533 29.386533-0.001024 16.205033-13.182524 29.386533-29.386533 29.386533zM679.457469 320.626618c-16.204009 0-29.386533-13.1815-29.386533-29.386533s13.1815-29.386533 29.386533-29.386533 29.386533 13.1815 29.386532 29.386533-13.1815 29.386533-29.386532 29.386533zM594.564065 320.626618c-16.205033 0-29.386533-13.1815-29.386533-29.386533s13.1815-29.386533 29.386533-29.386533 29.386533 13.1815 29.386533 29.386533-13.1815 29.386533-29.386533 29.386533zM509.670661 320.626618c-16.205033 0-29.386533-13.1815-29.386533-29.386533s13.1815-29.386533 29.386533-29.386533c16.204009 0 29.386533 13.1815 29.386533 29.386533-0.001024 16.205033-13.182524 29.386533-29.386533 29.386533zM679.457469 235.733214c-16.204009 0-29.386533-13.1815-29.386533-29.386533 0-16.204009 13.1815-29.386533 29.386533-29.386533s29.386533 13.1815 29.386532 29.386533-13.1815 29.386533-29.386532 29.386533zM594.564065 235.733214c-16.205033 0-29.386533-13.1815-29.386533-29.386533 0-16.204009 13.1815-29.386533 29.386533-29.386533s29.386533 13.1815 29.386533 29.386533-13.1815 29.386533-29.386533 29.386533zM509.670661 235.733214c-16.205033 0-29.386533-13.1815-29.386533-29.386533 0-16.204009 13.1815-29.386533 29.386533-29.386533 16.204009 0 29.386533 13.1815 29.386533 29.386533-0.001024 16.205033-13.182524 29.386533-29.386533 29.386533zM382.432432 423.856784c0 14.426544-11.694818 26.121362-26.121363 26.121362H238.58883c-14.426544 0-26.121362-11.694818-26.121362-26.121362v-26.596445c0-14.426544 11.694818-26.121362 26.121362-26.121363h117.722239c14.426544 0 26.121362 11.694818 26.121363 26.121363v26.596445z m-143.343946-25.072904v26.621019h120.385365l0.019454-26.621019H239.088486zM382.432432 190.41093c0 14.426544-11.694818 26.121362-26.121363 26.121362H238.58883c-14.426544 0-26.121362-11.694818-26.121362-26.121362v-26.596445c0-14.426544 11.694818-26.121362 26.121362-26.121363h117.722239c14.426544 0 26.121362 11.694818 26.121363 26.121363v26.596445z m-143.343946-27.120675v26.621019h120.385365l0.019454-26.621019H239.088486zM382.432432 306.109972c0 14.426544-11.694818 26.121362-26.121363 26.121362H238.58883c-14.426544 0-26.121362-11.694818-26.121362-26.121362v-26.596446c0-14.426544 11.694818-26.121362 26.121362-26.121362h117.722239c14.426544 0 26.121362 11.694818 26.121363 26.121362v26.596446z m-143.343946-25.072904v24.573248h120.385365l0.019454-24.573248H239.088486z"  horiz-adv-x="1024" />

    
    <glyph glyph-name="location" unicode="&#58906;" d="M512 768a256 256 0 0 1-256-256c0-123.52 97.92-275.84 208-483.84a55.04 55.04 0 0 1 96 0C670.08 236.16 768 388.48 768 512a256 256 0 0 1-256 256z m0-384a128 128 0 1 0 128 128 128 128 0 0 0-128-128z"  horiz-adv-x="1024" />

    
    <glyph glyph-name="email" unicode="&#59115;" d="M490.338462 303.261538c11.815385-11.815385 29.538462-11.815385 41.353846 0l445.046154 413.538462c7.876923 15.753846 5.907692 41.353846-25.6 41.353846l-880.246154-1.969231c-23.630769 0-43.323077-21.661538-25.6-41.353846l445.046154-411.569231zM984.615385 555.323077c0 19.692308-23.630769 31.507692-39.384616 17.723077L596.676923 252.061538c-23.630769-21.661538-53.169231-33.476923-84.676923-33.476923s-61.046154 11.815385-84.676923 31.507693L80.738462 573.046154c-15.753846 13.784615-39.384615 3.938462-39.384616-17.723077C39.384615 561.230769 39.384615 108.307692 39.384615 108.307692c0-43.323077 35.446154-78.769231 78.769231-78.76923h787.692308c43.323077 0 78.769231 35.446154 78.769231 78.76923V555.323077z"  horiz-adv-x="1024" />

    
    <glyph glyph-name="tengxunweibo" unicode="&#58902;" d="M511.437115 97.321192a400.358029 400.358029 0 0 0-87.087136 9.584058 31.946858 31.946858 0 1 0 13.960777 62.328321 334.803076 334.803076 0 1 1-221.040313 166.123663 31.946858 31.946858 0 0 0-56.13063-30.637037 399.33573 399.33573 0 1 0 350.297302-207.399005z m0.351416 255.574867a143.760863 143.760863 0 1 0 143.760862 143.760863 143.984491 143.984491 0 0 0-143.856703-143.633075z m0 223.628009a79.867146 79.867146 0 1 1 79.867146-79.867146A79.867146 79.867146 0 0 1 511.69269 576.619909zM176.634039-127.808319a35.524907 35.524907 0 0 0-4.504507 0.287522 31.946858 31.946858 0 0 0-27.218723 36.09995c2.23628 15.717854 56.673727 387.004243 267.970248 535.908549a31.946858 31.946858 0 1 0 36.866675-52.201166c-188.486465-132.866984-240.975153-489.042508-241.486303-492.620557a31.946858 31.946858 0 0 0-31.62739-27.378457z"  horiz-adv-x="1024" />

    
    <glyph glyph-name="VIP" unicode="&#58631;" d="M407.066867 481.410495H624.071964c59.950825 0 108.54093-48.590105 108.54093-108.54093v-162.811394c0-59.950825-48.590105-108.54093-108.54093-108.54093H407.066867c-59.950825 0-108.54093 48.590105-108.54093 108.54093V372.869565c0 59.950825 48.590105 108.54093 108.54093 108.54093zM497.568816 349.303748c3.30075 8.827586 5.987406 14.584708 7.983208 17.271364 3.761319 4.835982 9.057871 7.752924 15.889655 8.597302v20.265067h-61.025487v-20.265067c11.744528 0 17.578411-4.682459 17.578411-13.893853 0-3.761319-0.997901-8.213493-2.993703-13.27976L441.149025 260.413793l-37.45967 102.476762c-0.690855 1.304948-0.997901 2.533133-0.997901 3.684557 0 5.757121 3.454273 8.597301 10.286057 8.597302h8.290255v20.265067h-90.578711v-20.265067c9.97901 0 17.271364-6.217691 21.877062-18.576312l45.442879-122.358021c8.597301-23.182009 13.356522-36.615292 14.277661-40.146327h29.169415c3.991604 16.810795 9.364918 33.928636 16.273463 51.430285l29.783508 77.682759c5.987406 0 10.055772-1.304948 12.205098-3.76132 2.302849-2.686657 3.454273-6.985307 3.454273-12.972713v-86.817392c0-11.283958-5.066267-16.887556-15.198801-16.887556v-15.198801h68.164318v15.198801c-10.593103 0-15.889655 5.603598-15.889655 16.887556V306.470765c0 11.130435 5.373313 16.657271 16.196702 16.657271v15.198801h-63.098051l4.221889 10.976911z m187.451874-21.416492c-9.441679 7.138831-20.725637 10.669865-33.851874 10.669865h-74.842579v-15.429085c10.976912 0 16.426987-5.526837 16.426986-16.657271v-86.817392c0-11.283958-5.373313-16.887556-16.196701-16.887556v-15.198801h72.386207v15.198801c-6.831784 0-11.591004 1.228186-14.431185 3.761319-2.993703 2.686657-4.452174 7.062069-4.452174 13.202999v32.853973h19.42069c14.124138 0 25.868666 3.838081 35.310345 11.437481 10.43958 8.136732 15.65937 19.036882 15.65937 32.853973 0 12.665667-5.143028 23.028486-15.429085 31.011694z m-29.092654-52.735232c-3.30075-4.835982-9.441679-7.215592-18.422789-7.215592h-7.445877v55.191604h6.447976c15.736132 0 23.642579-9.211394 23.642579-27.634183 0-9.364918-1.381709-16.196702-4.221889-20.341829z"  horiz-adv-x="1024" />

    
    <glyph glyph-name="yuanquan" unicode="&#58920;" d="M179.2 372.05a33.333 33.333 0 1 1 682.66 0 33.333 33.333 0 1 1-682.66 0z"  horiz-adv-x="1024" />

    
    <glyph glyph-name="xiyiji" unicode="&#58903;" d="M512.3 69.5c122.4 0 221.6 99.2 221.6 221.6 0 122.4-99.2 221.6-221.6 221.6-122.4 0-221.6-99.2-221.6-221.6-0.1-122.3 99.1-221.6 221.6-221.6z m0 403c100.1 0 181.3-81.2 181.3-181.3 0-100.1-81.2-181.3-181.3-181.3-100.1 0-181.3 81.2-181.3 181.3-0.1 100.1 81.1 181.3 181.3 181.3z m256.6 282.1H255.6c-36.2 0-65.7-29.2-65.7-65.1V54c0-35.9 29.5-65.1 65.7-65.1h513.3c36.2 0 65.7 29.2 65.7 65.1V689.5c0 35.9-29.5 65.1-65.7 65.1z m25.7-708.1c0-8.5-17.1-15.5-25.7-15.5H245.5c-8.6 0-15.7 7-15.7 15.5v505h564.8v-505z m0 547.1H229.9V698.3c5.7 15.8 15.7 15.5 15.7 15.5H779c8.6 0 15.7-7 15.7-15.5v-104.7zM411.5 674H290.6c-11.1 0-20.1-9-20.1-20.1 0-11.1 9-20.2 20.1-20.2h120.9c11.1 0 20.1 9 20.1 20.2 0.1 11-9 20.1-20.1 20.1z m241.8 0c-11.1 0-20.2-9-20.2-20.1 0-11.1 9-20.2 20.2-20.2 11.1 0 20.1 9 20.1 20.2 0 11-9 20.1-20.1 20.1z m80.6 0c-11.1 0-20.1-9-20.1-20.1 0-11.1 9-20.2 20.1-20.2 11.1 0 20.2 9 20.2 20.2-0.1 11-9.1 20.1-20.2 20.1z"  horiz-adv-x="1024" />

    
    <glyph glyph-name="mianfei" unicode="&#58963;" d="M512 776c216.1 0 392-175.9 392-392S728.1-8 512-8 120 167.9 120 384s175.9 392 392 392m0 56C264.6 832 64 631.4 64 384s200.6-448 448-448 448 200.6 448 448S759.4 832 512 832zM777.7 275.7c-14.1 23.5-36.1 23.5-50.2 0l-2-7.8c2.5-56.8-7.7-71.9-12.2-75.7-1.7-1.5-4.5-3.2-13.2-1.6l-102.6-0.2c-5.6-0.6-10.2-0.3-11.9 1.2-1.7 1.5-2.7 5.7-2.7 11.2v113l55.1 0.1c26.5-2 46.9 3.9 60 17.1 12.4 12.5 17.8 30.9 16.2 53.8l-0.1 60.1c1.7 20.6-2.7 37.2-13.2 49.5-11.2 13.1-28.7 20.7-53.3 22.5h-36.3c7.7 13.6 15.4 29.2 23.2 46.9 6.7 18.5 5.9 33.9-2.4 45.7-10 14.2-29.3 21.2-59 21.2h-124c1.8 3.3 3.6 6.8 5.4 10.4l1.5 6.2c0 14.3-4.3 23.9-12.7 28.7-8.4 4.6-18.5 3.6-30.4-3.6l-5-5.1c-39.6-70.7-91.1-127.9-153.2-170.3l-4.2-4.3c-7.1-11.8-8.3-22-3.5-30.4 4.8-8.5 14.4-12.7 28.7-12.7l7.4 2.1c10.5 6.6 20.9 13.8 31.2 21.7-3-9.2-4.5-19.8-4.5-31.7v-65.6c0-22.3 5.9-38.9 17.6-49.7 11-10 26.4-14.3 44.5-12.5h94c-25.6-58.8-93.7-104-202.7-134.4l-5-2.6c-11.6-9.2-16.6-18.9-14.9-28.8 1.8-9.7 9.7-17.1 23.6-21.7l8-0.3c133.7 34.9 218.2 98 251.4 187.7h2.3v-117.2c0-20.7 5.9-36.8 17.6-47.5 12.4-11.5 30.6-16.2 53.3-14.6l103.1 0.1c19.6-2.4 35.4 2 48 13.5 21.7 19.6 31.2 58.6 29.1 119.1l-2 6.5zM564.5 578.2c6.7 0 11.2-0.4 14.3-0.9l-0.9-1.4c-7.5-17.7-17.6-36.8-30-57.1H380.8c-6.9 0-13.4-0.6-19.4-1.9 18.1 18.3 35.7 38.8 52.7 61.4h150.4zM660 384.9c0.8-6.2 0.2-10.8-1.7-12.7-0.9-0.9-4.8-3.8-19.4-2.2H536.4c3.9 36.5 6.2 68.2 6.9 94.5h99.9c7.2 0 12.3-1.4 14.6-3.9 2.3-2.6 3.1-8 2-17.1l0.2-58.6z m-295.9 63c0 12.7 3.9 16.6 16.6 16.6h108.4c-0.6-29.5-2.9-61.2-7-94.5l-98.8-0.1c-7.4-1-12.8-0.2-15.3 2.1-2.5 2.3-3.9 7.5-3.9 14.7v61.2z"  horiz-adv-x="1024" />

    
    <glyph glyph-name="hot" unicode="&#58893;" d="M561.527411 442.919918c-3.251252 3.468003-7.152755 6.213505-11.704508 8.236506-4.551753 2.023001-9.609257 3.034502-15.100261 3.034502-5.491004 0-10.476258-1.011501-14.955761-3.034502-4.479503-2.023001-8.381006-4.768503-11.704509-8.236506-3.251252-3.468003-5.780004-7.658506-7.586255-12.499259-1.734001-4.840754-2.673252-10.115007-2.673252-15.750512 0-5.852254 0.939251-11.198758 2.745502-16.184011 1.806251-4.913004 4.335003-9.175757 7.586255-12.71601 3.251252-3.540253 7.080505-6.285755 11.632259-8.308756 4.479503-2.023001 9.464757-3.034502 14.955761-3.034502s10.476258 1.011501 14.955761 3.034502c4.479503 2.023001 8.381006 4.768503 11.704508 8.308756s5.852254 7.803006 7.658506 12.71601c1.806251 4.913004 2.745502 10.331758 2.745502 16.184011 0 5.635504-0.939251 10.837508-2.745502 15.750512-1.806251 4.840754-4.335003 9.031257-7.514006 12.499259z m75.790306 134.963099H385.959783C297.670218 577.883017 226.142666 506.138714 226.142666 417.99365v-228.382417l98.982572 68.49305h312.192479c88.217315 0 159.817117 71.744303 159.817117 159.889367-0.07225 88.289565-71.744303 159.889367-159.817117 159.889367zM443.759825 349.5006H412.547802v54.115289h-50.430537v-54.115289H330.905242v129.327594h31.212023v-48.985535H412.547802v48.985535h31.212023v-129.327594z m156.204614 37.208777c-3.540253-8.453256-8.453256-15.750512-14.73901-21.747266s-13.72751-10.693008-22.397517-13.94426c-8.670006-3.323502-18.062513-4.913004-28.17752-4.913004s-19.435264 1.661751-28.033021 4.913004c-8.597756 3.251252-16.039512 7.947506-22.253016 13.94426-6.285755 5.996754-11.198758 13.29401-14.739011 21.747266-3.540253 8.453256-5.274254 17.845763-5.274254 28.033021 0 10.331758 1.734001 19.724264 5.274254 28.03302 3.540253 8.308756 8.453256 15.461511 14.739011 21.313766 6.285755 5.852254 13.72751 10.331758 22.253016 13.51076 8.597756 3.179002 17.918013 4.768503 28.033021 4.768503 10.115007 0 19.507514-1.589501 28.17752-4.768503 8.670006-3.179002 16.111762-7.658506 22.397517-13.51076s11.198758-12.932759 14.73901-21.313766c3.540253-8.308756 5.274254-17.701263 5.274254-28.03302 0-10.259508-1.734001-19.579764-5.274254-28.033021z m112.565583 65.458548h-36.558527v-102.667325h-31.212023V452.167925h-36.558527v26.660269h104.329077v-26.660269z m0 0"  horiz-adv-x="1024" />

    
    <glyph glyph-name="kefu" unicode="&#58926;" d="M515.533 125.768c4.367 0 8.811 0.266 13.286 0.798 42.89 5.146 79.309 35.124 92.754 76.437a6.339 6.339 0 0 1-3.41 7.762c-2.928 1.362-6.471 0.184-8.12-2.586-0.159-0.266-17.198-27.791-83.543-36.751a217.549 217.549 0 0 0-28.754-2.028c-46.485 0.026-67.195 17.547-67.384 17.71a6.37 6.37 0 0 1-9.636-8.135c20.234-32.804 56.545-53.207 94.807-53.207z m356.72 411.156c-0.588 0-1.116-0.107-1.679-0.107-38.871 168.289-187.402 293.826-365.48 293.826-182.98 0-334.915-132.475-368.595-307.722-32.747-5.893-57.666-34.673-57.666-69.478v-139.3c0-39.045 31.308-70.702 69.964-70.702 21.807 0 41.053 10.296 53.858 26.112 30.935-81.823 93.921-147.805 173.63-182.61 0.189 0.414 1.699 3.348 3.511 5.683 1.26 1.623 2.663 2.954 3.866 2.954 1.25 0 2.396-0.456 3.38-1.147-18.453 13.737-85.09 84.332-99.518 182.856-6.339 43.366 26.143 85.934 63.974 92.974 60.729 11.31 121.134 24.192 181.863 35.287 38.604 7.04 64.988 28.216 81.12 63.478 3.78 8.243 9.237 24.909 11.741 48.942 0.666 3.574 3.594 6.323 7.347 6.323 2.504 0 4.634-1.28 6.042-3.118l1.68 1.04c23.935-34.75 71.403-111.699 78.217-192.83 7.829-92.76 3.462-156.288-67.543-221.286a3.016 3.016 0 0 0-0.291-0.267 5.827 5.827 0 0 1-1.572-3.973c0-2.002 1.065-3.707 2.611-4.746 0.584-0.24 1.172-0.558 1.756-0.799 0.481-0.107 0.932-0.266 1.413-0.266s0.906 0.159 1.331 0.266c1.014 0.533 1.972 1.147 2.955 1.68A324.685 324.685 0 0 1 812.503 285.06a71.803 71.803 0 0 1 45.179-30.162C827.622 118.185 705.69 32.625 554.634 19.64c-9.052 22.457-31.334 38.405-57.508 38.405-34.18 0-61.9-27.069-61.9-60.436s27.714-60.41 61.9-60.41c27.556 0 50.637 17.71 58.65 42.03 174.858 14.217 315.028 118.148 344.29 279.638 25.85 10.803 44.006 36.168 44.006 65.772V465.592c0.01 39.378-32.154 71.332-71.819 71.332z m-64.506-40.489C762.143 619.971 643.963 708.224 504.94 708.224c-138.44 0-256.195-87.506-302.224-210.243-2.288 2.801-4.976 5.202-7.613 7.63 26.066 149.57 154.788 263.29 310 263.29 154.466 0 282.788-112.604 309.704-261.13-2.667-3.574-5.12-7.306-7.06-11.336zM376.294 86.938l-0.01 0.005c-0.03-0.067-0.03-0.077 0.01-0.005z"  horiz-adv-x="1024" />

    
    <glyph glyph-name="reshuiqi" unicode="&#58889;" d="M178.020596 890.866125a166.504065 166.504065 0 0 0 128.901897-61.051491 249.756098 249.756098 0 0 0 338.835773-0.693767l24.004336-22.200542L330.649322 442.415176l-23.588075 22.061789a249.756098 249.756098 0 0 0-28.721952 333.00813A121.964228 121.964228 0 0 1 178.714363 854.373984c-68.40542 0-123.906775-58.692683-123.906775-135.1458V-128H11.516531V723.945799a166.504065 166.504065 0 0 0 166.504065 166.504065z m154.01626-388.509485h0.832521L609.682385 798.872629H608.156098a202.302439 202.302439 0 1 1-275.841735-296.654743z m396.834689 139.863414l-29.138212 29.138212a26.918157 26.918157 0 0 0 38.157182 38.157181l29.138211-29.138211a26.918157 26.918157 0 1 0-38.157181-38.157182z m-123.490515-123.490515l-29.138212 29.138212a26.918157 26.918157 0 0 0 38.157182 38.157181l29.138211-29.138211a26.918157 26.918157 0 0 0-38.157181-38.157182z m-129.595664-67.572899l29.138211-29.138212A26.918157 26.918157 0 0 0 467.598916 382.612466l-29.138211 29.138212a26.918157 26.918157 0 0 0 38.157181 38.157181z m375.466667 132.786991l29.138211-29.138211a26.918157 26.918157 0 0 0-38.157182-38.157182l-29.138211 29.138212a26.918157 26.918157 0 1 0 38.157182 38.157181zM719.158808 392.880217l-29.138212 29.138211a26.918157 26.918157 0 0 0 38.157182 38.157182l29.138211-29.138212A26.918157 26.918157 0 0 0 719.158808 392.463957zM599.969648 327.111111l29.138211-29.138211a27.056911 27.056911 0 0 0-38.157181-38.157182l-29.138212 29.138212A26.918157 26.918157 0 1 0 599.969648 327.111111z m375.466666 132.648239l29.138212-29.138212a26.918157 26.918157 0 1 0-38.157182-38.157181l-29.138211 29.138211a26.918157 26.918157 0 0 0 38.157181 38.157182z m-123.490515-123.490515l29.138212-29.138212a26.918157 26.918157 0 0 0-38.157182-38.157181l-29.138211 29.138211a26.918157 26.918157 0 0 0 38.157181 38.157182z m-128.20813-133.203252l29.138212-29.138212a26.918157 26.918157 0 0 0-38.157182-38.157181l-29.138211 29.138211a26.918157 26.918157 0 0 0 38.157181 38.157182z"  horiz-adv-x="1024" />

    
    <glyph glyph-name="chudian" unicode="&#58898;" d="M608 768H416c-17.7 0-32 14.3-32 32s14.3 32 32 32h192c17.7 0 32-14.3 32-32s-14.3-32-32-32z m224-64H192c-70.7 0-128-57.3-128-128v-64h64v64c0 35.3 28.7 64 64 64h640c35.3 0 64-28.7 64-64v-64h64v64c0 70.7-57.3 128-128 128z m128-257v1H192v-64h128v-192c0-35.3 28.7-64 64-64h256c35.3 0 64 28.7 64 64V384h192v-320c0-35.3-28.7-64-64-64H192c-35.3 0-64 28.7-64 64V448H64v-1H0v-63h64v-320c0-70.7 57.3-128 128-128h640c70.7 0 128 57.3 128 128V384h64v63h-64zM640 192H384V384h256v-192z"  horiz-adv-x="1024" />

    
    <glyph glyph-name="icon-test1" unicode="&#58881;" d="M725.333333 341.333333a42.666667 42.666667 0 1 0 0-85.333333v-21.333333a42.666667 42.666667 0 1 0-85.333333 0v21.333333h-106.666667a42.666667 42.666667 0 0 0-39.957333 57.642667l64 170.666666a42.666667 42.666667 0 0 0 79.914667-29.952L594.901333 341.333333H640v42.666667a42.666667 42.666667 0 1 0 85.333333 0v-42.666667z m128 364.842667V810.666667a42.666667 42.666667 0 1 0 85.333334 0v-213.333334a42.666667 42.666667 0 0 0-42.666667-42.666666H682.666667a42.666667 42.666667 0 1 0 0 85.333333h115.584C726.464 720.32 623.317333 768 512 768 299.925333 768 128 596.074667 128 384s171.925333-384 384-384 384 171.925333 384 384a42.666667 42.666667 0 1 0 85.333333 0c0-259.2-210.133333-469.333333-469.333333-469.333333S42.666667 124.8 42.666667 384 252.8 853.333333 512 853.333333c131.648 0 254.08-54.656 341.333333-147.157333z m-409.216-369.706667L392.533333 277.333333H426.666667a42.666667 42.666667 0 1 0 0-85.333333h-128c-36.629333 0-56.234667 43.114667-32.149334 70.72l112.597334 129.024A21.333333 21.333333 0 1 1 341.333333 405.333333a42.666667 42.666667 0 1 0-85.333333 0 106.666667 106.666667 0 0 0 213.333333 0c0-25.152-8.789333-49.066667-25.216-68.864z"  horiz-adv-x="1024" />

    
    <glyph glyph-name="weibo1" unicode="&#58663;" d="M905.2095 689.099766c-87.591941 84.118839-216.174458 72.356958-216.174458 72.356958-15.810081-0.319272-28.629038-13.410428-28.629038-29.359678l0-14.2127c0-15.897062 12.759605-28.04166 29.03529-27.76332 0 0 123.395378 13.097296 175.956478-63.518662 52.552913-76.615958 29.846772-172.754552 29.846772-172.754552-2.411933-15.693424 8.479115-28.418236 24.541953-28.418236l12.260232 0c15.966647 0 30.729885 12.68388 32.450063 28.523637C964.498838 453.953212 992.800417 604.983997 905.2095 689.099766L905.2095 689.099766zM803.345508 459.404364l17.372669 0c10.604522 0 20.883633 8.31027 22.596647 18.989493 0 0 20.475334 79.68383-27.296693 123.358539-47.777143 43.676755-110.211101 27.744901-110.211101 27.744901-10.471492-1.598404-18.97005-11.528568-18.97005-22.084994l0-7.494695c0-10.604522 8.483208-18.557658 19.436678-18.23941 0 0 52.40351 7.129374 77.892021-23.601534 25.484418-30.738072 5.531993-80.44517 5.531993-80.44517C786.634918 467.562161 792.882202 459.404364 803.345508 459.404364L803.345508 459.404364zM395.210064 380.819564c-86.011956-16.717753-144.265708-89.281419-130.117476-162.080445 14.153348-72.792886 95.347578-118.253264 181.354418-101.535511 86.009909 16.72287 144.276964 89.288582 130.123616 162.086585C562.421366 352.08205599999997 481.227136 397.542434 395.210064 380.819564L395.210064 380.819564zM388.155391 189.37227800000005c-26.470885-12.341073-55.552224-6.007831-64.953338 14.153348-9.402137 20.169365 4.433986 46.518476 30.90487 58.859549 26.471908 12.348236 55.555294 6.007831 64.960501-14.153348C428.456259 228.06348500000001 414.633439 201.71335 388.155391 189.37227800000005L388.155391 189.37227800000005zM448.856891 250.63148c-14.594393 0-26.431999 12.023848-26.431999 26.854625 0 14.829753 11.835559 26.857694 26.431999 26.857694 14.614859 0 26.453489-12.028964 26.453489-26.857694C475.309356 262.653281 463.469704 250.63148 448.856891 250.63148L448.856891 250.63148zM715.679889 410.869974c0 8.087189 76.927043 80.879052 0 126.176724-76.92909 45.292556-217.655182-23.570835-213.438137-16.175401 60.525492 105.731066-25.965371 139.111315-70.061682 139.111315-105.133456 0-379.945405-234.181577-379.945405-382.496507 0-148.315954 183.496198-268.555455 409.844366-268.555455 226.353284 0 408.096559 120.240525 408.096559 268.555455C870.176612 402.782785 715.679889 402.782785 715.679889 410.869974L715.679889 410.869974zM473.15018 91.20037400000001c-144.601352-20.323884-272.714172 40.59251-286.131763 136.055722-13.417591 95.470375 92.935646 189.337229 237.544161 209.661114 144.625912 20.323884 272.721335-40.590464 286.144042-136.060839C724.128305 205.39213600000005 617.775069 111.52630499999998 473.15018 91.20037400000001L473.15018 91.20037400000001z"  horiz-adv-x="1024" />

    
    <glyph glyph-name="xuehua" unicode="&#58948;" d="M507.603996-128c-12.099502 0-20.378109 10.189055-20.378109 20.378109v149.014926L406.987081-40.119403c-3.820896-3.820896-8.915423-6.368159-14.009951-6.368159-5.094527 0-10.189055 1.910448-14.00995 6.368159-8.278607 8.278607-8.278607 19.741294 0 28.019901l108.895522 112.079602v250.268656L273.892553 224.79602l-40.756219-149.651741v-0.636816c-1.273632-7.641791-10.825871-13.373134-20.378109-13.373135-1.273632 0-2.547264 0-3.820896 0.636816-8.278607 1.910448-14.646766 13.373134-12.736318 24.199005l31.20398 112.079602-131.18408-77.691542c-3.18408-1.273632-7.004975-1.910448-10.82587-1.910448-4.457711 0-12.736318 1.273632-18.467662 9.552239-3.820896 10.189055-2.547264 22.925373 8.278607 29.293532L206.390066 231.164179l-112.079602 31.20398h-0.636816c-8.278607 1.910448-15.283582 14.00995-12.736319 24.199005 1.273632 7.641791 10.825871 13.373134 20.37811 13.373135h3.820895l149.014926-40.756219L471.305489 384 253.514444 505.631841l-150.288557-40.756219h-0.636816c-1.273632-0.636816-2.547264-0.636816-4.457712-0.636816-7.641791 0-16.557214 7.004975-17.830846 14.646766v1.273632l-0.636815 1.273632c-1.910448 5.094527 0 9.552239 1.273631 12.099502 2.547264 5.094527 7.641791 8.915423 12.099503 9.552239h0.636816l110.80597 31.20398-129.910448 77.054727c-10.825871 6.368159-12.099502 19.104478-8.278607 29.293532 5.094527 8.278607 14.00995 9.552239 18.467662 9.552239 3.18408 0 7.004975-0.636816 10.825871-1.910448l131.184079-77.691542-31.20398 112.079602c-1.910448 12.099502 3.820896 22.925373 14.00995 27.383084h3.18408c9.552239 0 19.104478-5.731343 20.378109-13.373134v-0.636816l40.756219-149.651741 217.154229-124.815921V668.0199L382.15126 776.915423c-3.820896 3.820896-6.368159 8.915423-6.36816 14.00995s1.910448 10.189055 6.36816 14.00995c3.820896 3.820896 8.915423 6.368159 14.00995 6.36816 5.094527 0 10.189055-1.910448 14.00995-6.36816l80.875622-80.875622V875.621891c0 12.736318 7.641791 19.741294 19.741294 19.741293 12.099502 0 20.378109-10.189055 20.378109-19.741293v-153.472637l80.875622 85.333333c3.820896 3.820896 8.915423 5.731343 14.00995 5.731343 5.094527 0 10.189055-1.910448 14.00995-6.368159 3.820896-3.820896 6.368159-8.915423 6.36816-14.00995 0-5.094527-1.910448-10.189055-6.36816-14.00995l-108.895522-112.079602v-250.268657l213.970149 125.452736 43.940299 152.835821v0.636816c1.273632 7.641791 10.825871 13.373134 20.378109 13.373134 1.273632 0 2.547264 0 3.820896-0.636816 5.094527-1.273632 8.915423-5.731343 10.189055-8.278606 2.547264-5.094527 3.820896-10.825871 2.547263-15.920398l-26.746268-110.169155 126.726368 73.233831c3.18408 1.273632 7.004975 1.910448 10.82587 1.910448 4.457711 0 12.736318-1.273632 18.467662-9.552239 1.910448-5.731343 2.547264-11.462687 1.273632-15.920398s-3.820896-7.641791-7.641791-8.915423l-0.636816-0.636816-128.636816-74.507462 111.442786-31.203981h0.636816c8.278607-1.910448 15.283582-14.00995 12.736318-24.199004-1.273632-7.641791-10.825871-13.373134-20.378109-13.373135-1.273632 0-2.547264 0-3.820896 0.636816l-152.199005 36.935323-217.154228-124.179104 217.154228-121.631841 153.472637 37.57214 0.636816 0.636815c1.273632 0.636816 2.547264 0.636816 4.457712 0.636816 7.641791 0 16.557214-7.004975 17.830845-14.646766v-1.273632l0.636816-1.273632c1.910448-5.094527 0-9.552239-1.273632-12.099502-2.547264-5.094527-7.641791-8.915423-12.099502-9.552239h-0.636816l-110.80597-31.20398 128-73.870647c9.552239-5.731343 15.283582-17.19403 8.278607-28.656716-4.457711-7.004975-11.462687-11.462687-18.467662-11.462687-3.18408 0-7.004975 0.636816-9.552239 2.547264l-128.636816 75.144279 31.840797-112.716418v-0.636816c1.910448-5.094527 0-9.552239-1.273632-12.099503-2.547264-5.094527-7.641791-8.915423-12.099503-9.552238-1.273632 0-2.547264-0.636816-3.820895-0.636816-9.552239 0-19.104478 5.731343-20.37811 13.373134v1.273632l-43.940298 152.835821-217.154229 124.81592v-250.268657l105.074627-112.079602c8.278607-8.278607 8.278607-20.378109 0-28.0199-3.820896-3.820896-8.915423-6.368159-14.009951-6.368159-5.094527 0-10.189055 1.910448-14.00995 6.368159L527.982105 40.756219v-149.014925c0-12.099502-7.641791-19.741294-20.378109-19.741294z"  horiz-adv-x="1024" />

    
    <glyph glyph-name="damuzhi-weixuanzhong" unicode="&#58652;" d="M511.80672 896A511.80672 511.80672 0 1 0 0 384.579841 512.19328 512.19328 0 0 0 511.80672 896z m0-57.984145a453.822575 453.822575 0 1 1 454.209135-453.436014A454.209136 454.209136 0 0 1 511.80672 838.015855zM703.154398 498.228766a125.632314 125.632314 0 0 0 115.96829-170.859948l-51.412609-136.06946a125.632314 125.632314 0 0 0-115.96829-80.404681h-190.187995v57.984145h189.028312a67.648169 67.648169 0 0 1 63.009438 43.294828l52.572291 136.069461a67.648169 67.648169 0 0 1-63.009437 92.00151h-93.161193l17.781804 157.716874a42.521706 42.521706 0 0 1-38.656096 47.160438h-5.025293a51.799169 51.799169 0 0 1-51.799169-47.546999c-8.11778-95.86712-47.93356-154.624387-118.674217-173.952435v-326.257456H318.526236a77.312193 77.312193 0 0 0-77.312193 77.312194v226.138165a77.312193 77.312193 0 0 0 77.312193 77.312193h72.673462c51.026048 8.11778 77.312193 46.773877 85.429974 124.472632a109.783314 109.783314 0 0 0 109.396753 100.892412h11.596829a100.505851 100.505851 0 0 0 88.1359-112.102681l-10.823707-93.161192z m-384.628162-77.312194a19.328048 19.328048 0 0 1-19.328048-19.328048v-225.751604a19.328048 19.328048 0 0 1 19.328048-19.328049h38.656097v263.634579z"  horiz-adv-x="1024" />

    
    <glyph glyph-name="xin" unicode="&#58625;" d="M842.98653417 629.23625409A209.77034673 209.77034673 0 0 1 555.3700195 635.5598926299999a209.77034673 209.77034673 0 0 1-287.61651527-6.32363854 205.40921708 205.40921708 0 0 1 0-292.41375797l240.95242526-238.77186012a65.41694825 65.41694825 0 0 1 93.32817941 0l240.95242527 238.55380393a205.40921708 205.40921708 0 0 1 0 292.63181416z m-31.18207854-261.66779244L570.85203035 128.79660150999996a21.80564942 21.80564942 0 0 0-30.96402233 1e-8L298.71752595 367.56846165a162.23403128 162.23403128 0 0 0 0 230.92182693A165.50487864 165.50487864 0 0 0 525.71433623 602.1972489699999L555.3700195 576.68463916 584.80764595 602.1972489699999a165.50487864 165.50487864 0 0 0 226.99680967-4.79724267 162.23403128 162.23403128 0 0 0 1e-8-229.83154465zM408.18188607 580.39159956A92.67400958 92.67400958 0 0 1 315.50787648 487.71758998a10.90282442 10.90282442 0 0 1 21.80564884 0A70.86836017 70.86836017 0 0 0 408.18188607 558.58595013a10.90282442 10.90282442 0 0 1 0 21.80564943z"  horiz-adv-x="1170" />

    
    <glyph glyph-name="gerenzhongxin" unicode="&#58964;" d="M788.8 608c0-153.6-123.2-276.8-276.8-276.8S235.2 454.4 235.2 608 358.4 883.2 512 883.2 788.8 761.6 788.8 608zM864-116.8H136c-32 0-46.4 24-46.4 56 0 190.4 139.2 340.8 324.8 340.8h171.2c185.6 0 347.2-152 347.2-342.4v3.2c1.6-32-36.8-56-68.8-57.6z"  horiz-adv-x="1024" />

    
    <glyph glyph-name="vertical_line" unicode="&#58626;" d="M520.84356643 185.08449260999998c0-4.10232809-2.99337398-7.42777531-6.68532795-7.42777531l-4.31647743 0c-3.69242551 0-6.6857995 3.3254472-6.68579952 7.42777531L503.15596154 582.9159789600001c0 4.10185654 2.99337398 7.42777531 6.6857995 7.42777529l4.31647744 0c3.69195395 0 6.68532795-3.32591875 6.68532795-7.42777529L520.84356643 185.08449260999998z"  horiz-adv-x="1024" />

    
    <glyph glyph-name="yigou-" unicode="&#58954;" d="M961.08544 632.9856c-4.32128 5.55008-10.98752 9.1136-18.03264 9.1136H203.84768L172.47232 806.94272c-2.06848 10.8032-11.55072 18.31936-22.6304 18.31936H46.80704a22.96832 22.96832 0 0 1-22.91712-23.01952c0-12.67712 10.24-23.00928 22.91712-23.00928h84.0704l29.58336-164.75136v-0.37888l92.79488-482.4064c2.06848-10.8032 12.40064-18.41152 23.38816-18.41152h551.53664c12.67712 0 23.01952 10.33216 23.01952 23.00928s-10.33216 23.01952-23.01952 23.01952H295.61856l-14.1824 72.50944 575.11936-3.00032c10.60864 0 19.9168 8.92928 22.35392 19.2512l86.41536 365.38368a22.6304 22.6304 0 0 1-4.23936 19.52768zM838.42048 277.94432l-565.71904 1.1264-41.89184 219.6992-18.21696 96.36864h701.45024l-75.6224-317.19424zM346.5216 65.9456c-44.3392 0-80.40448-36.06528-80.40448-80.40448s36.06528-80.40448 80.40448-80.40448c44.32896 0 80.40448 36.06528 80.40448 80.40448S390.8608 65.9456 346.5216 65.9456z m0-114.96448a34.54976 34.54976 0 0 0-34.46784 34.46784 34.54976 34.54976 0 0 0 34.46784 34.46784 34.54976 34.54976 0 0 0 34.46784-34.46784 34.53952 34.53952 0 0 0-34.46784-34.46784zM737.16736 65.9456c-44.32896 0-80.40448-36.06528-80.40448-80.40448s36.07552-80.40448 80.40448-80.40448c44.3392 0 80.40448 36.06528 80.40448 80.40448a80.4352 80.4352 0 0 1-80.40448 80.40448z m0-114.96448a34.54976 34.54976 0 0 0-34.46784 34.46784 34.54976 34.54976 0 0 0 34.46784 34.46784 34.54976 34.54976 0 0 0 34.46784-34.46784 34.48832 34.48832 0 0 0-34.46784-34.46784z m0 0"  horiz-adv-x="1024" />

    
    <glyph glyph-name="shoucang" unicode="&#58929;" d="M787.240812-127.539407c-11.105403 0-24.001999 3.838273-35.056225 9.62127l-239.917637 124.820631-241.760008-124.871808A71.187166 71.187166 0 0 0 193.076186-112.186316c-22.159628 17.297816-35.056225 48.003998-29.529112 76.816632l49.795193 268.832626L23.219822 417.853566a86.898496 86.898496 0 0 0-20.266081 80.654905c9.211855 28.761457 31.371483 49.897546 60.900595 53.735819L327.671618 602.24419 445.89042 851.834275C458.684662 878.702184 484.580209 896 512.26695 896c27.635564 0 55.373482-17.297816 66.427708-44.165725l118.116448-249.641262 263.868459-48.003998a72.159528 72.159528 0 0 0 59.058224-53.735819c9.211855-28.863811 1.842371-59.569994-18.42371-80.706082l-190.071268-186.284172 47.952822-268.832626a79.324304 79.324304 0 0 0-29.529112-76.765455c-11.054226-9.62127-25.84437-15.404268-42.476886-15.404268z"  horiz-adv-x="1024" />

    
    <glyph glyph-name="huodaofukuan" unicode="&#58940;" d="M512 859.5456A475.5456 475.5456 0 1 1 987.5456 384 476.0576 476.0576 0 0 1 512 859.5456z m0-899.6864A424.1408 424.1408 0 1 0 936.1408 384 424.6528 424.6528 0 0 0 512-40.1408zM670.9248 626.176h-3.584a52.6336 52.6336 0 0 1-39.2192-23.1424L512 429.056 395.1616 604.16a60.5184 60.5184 0 0 1-38.4 22.2208h-3.4816c-27.648-6.144-31.8464-23.7568-31.8464-33.6896a45.6704 45.6704 0 0 1 6.2464-25.9072 20.48 20.48 0 0 1 7.68-9.1136l99.328-152.576h-47.8208c-33.4848-3.072-38.5024-22.528-38.5024-33.8944 0-9.4208 3.8912-31.232 39.3216-31.232h84.8896v-29.2864h-85.7088c-33.4848-3.072-38.5024-22.528-38.5024-33.8944 0-9.4208 3.8912-31.232 39.3216-31.232h84.8896v-98.4064c0-23.2448 14.336-36.6592 39.3216-36.6592a36.352 36.352 0 0 1 39.3216 36.6592v98.2016h84.8896c30.72 0 37.888 18.8416 39.3216 32.4608-1.3312 10.9568-8.192 29.696-39.3216 32.768h-84.7872v29.2864h84.8896c30.72 0 37.888 18.8416 39.3216 32.4608-1.3312 10.9568-8.192 29.696-39.3216 32.768h-47.0016l100.9664 155.2384 1.1264 3.4816 1.7408 2.1504a52.9408 52.9408 0 0 1 9.3184 27.9552 37.7856 37.7856 0 0 1-31.4368 32.256z"  horiz-adv-x="1024" />

    
    <glyph glyph-name="CombinedShapeCopy" unicode="&#58888;" d="M655.720277 384L224.616277 787.694933a60.6208 60.6208 0 0 0 0 89.736534 70.997333 70.997333 0 0 0 95.778134 0L799.421611 428.8512a60.6208 60.6208 0 0 0 0-89.7024L320.428544-109.431467a70.997333 70.997333 0 0 0-95.778133 0 60.6208 60.6208 0 0 0 0 89.736534L655.720277 384z"  horiz-adv-x="1024" />

    
    <glyph glyph-name="CombinedShapeCopy1" unicode="&#58890;" d="M368.272271 384.024404L799.355723-19.651287a60.617911 60.617911 0 0 0 0-89.732256 70.993949 70.993949 0 0 0-95.773569 0L224.577787 339.175342a60.617911 60.617911 0 0 0 0 89.698124L703.548023 877.432352a70.993949 70.993949 0 0 0 95.773568 0 60.617911 60.617911 0 0 0 0-89.732256L368.272271 384.024404z"  horiz-adv-x="1024" />

    
    <glyph glyph-name="weibiaoti--" unicode="&#58904;" d="M117.5 97.7c0 22.6 18.3 41 41 41h575.6c22.6 0 41-18.3 41-41 0-22.6-18.3-41-41-41H158.5c-22.6 0-41 18.3-41 41zM840.4-91c-22.3 3.7-37.4 24.9-33.6 47.2L900.3 514c3.7 22.3 24.9 37.4 47.2 33.6 22.3-3.7 37.4-24.9 33.6-47.2l-93.6-557.9c-3.7-22.2-24.8-37.2-47.1-33.5zM190.5-91c22.3 3.7 37.4 24.9 33.6 47.2l-24.7 147.4c-3.7 22.3-24.9 37.4-47.2 33.6-22.3-3.7-37.4-24.9-33.6-47.2l24.7-147.4c3.8-22.3 24.9-37.3 47.2-33.6zM143.3-50.6c0 22.6 18.3 41 41 41h661.8c22.6 0 41-18.3 41-41 0-22.6-18.3-41-41-41H184.3c-22.6 0-41 18.4-41 41zM136.8 229.3c22.3 3.7 37.4 24.9 33.6 47.2L130.6 514c-3.7 22.3-24.9 37.4-47.2 33.6-22.3-3.7-37.4-24.9-33.6-47.2l39.8-237.6c3.8-22.2 24.9-37.2 47.2-33.5zM319.5 342.9c13.1 18.4 8.8 44-9.6 57.1L113.8 539.8c-18.4 13.1-44 8.8-57.1-9.6-13.1-18.4-8.8-44 9.6-57.1l196.1-139.8c18.4-13.1 44-8.8 57.1 9.6zM711.7 342.9c-13.1 18.4-8.8 44 9.6 57.1l196.1 139.8c18.4 13.1 44 8.8 57.1-9.6 13.1-18.4 8.8-44-9.6-57.1L768.8 333.3c-18.4-13.1-44-8.8-57.1 9.6zM259.9 335.8c16.9-15.1 42.8-13.6 57.8 3.3L547.1 596c15.1 16.9 13.6 42.8-3.3 57.8-16.9 15.1-42.8 13.6-57.8-3.3L256.6 393.7c-15-16.9-13.6-42.8 3.3-57.9zM773.4 335.8c-16.9-15.1-42.8-13.6-57.8 3.3L487.2 594.9c-15.1 16.9-13.6 42.8 3.3 57.8 16.9 15.1 42.8 13.6 57.8-3.3l228.4-255.8c15.1-16.8 13.6-42.7-3.3-57.8zM515.2 874.5c-69.1 0-125-56-125-125s56-125 125-125 125 56 125 125-55.9 125-125 125z m0-168.2c-23.8 0-43.1 19.3-43.1 43.1s19.3 43.1 43.1 43.1 43.1-19.3 43.1-43.1c0.1-23.8-19.2-43.1-43.1-43.1z"  horiz-adv-x="1024" />

    
    <glyph glyph-name="xinxi" unicode="&#58921;" d="M168.9 617.1v-369.4c0-30.2 24.6-54.8 54.8-54.8h17.9v-78.5c0-12 7.1-22.6 18.1-27.2 3.7-1.5 7.6-2.3 11.4-2.3 6.9 0 13.6 2.4 19 7l140.2 101h361.4c30.2 0 54.8 24.6 54.8 54.8V617.1c0 30.2-24.6 54.8-54.8 54.8h-568c-30.3 0-54.8-24.6-54.8-54.8z m45 0c0 5.2 4.5 9.7 9.7 9.7h568c5.2 0 9.7-4.5 9.7-9.7v-369.4c0-5.2-4.5-9.7-9.7-9.7H416.5v-0.2l-0.4 0.5L286.5 145v93h-62.9c-5.2 0-9.7 4.5-9.7 9.7V617.1zM380.7 466.2h-40.9c-5.6 0-10.2-4.6-10.2-10.2v-41c0-5.6 4.6-10.2 10.2-10.2h40.9c5.6 0 10.2 4.6 10.2 10.2v40.9c0 5.7-4.6 10.3-10.2 10.3zM536.3 457c0 5.6-4.6 10.2-10.2 10.2h-40.9c-5.6 0-10.2-4.6-10.2-10.2v-41c0-5.6 4.6-10.2 10.2-10.2H526c5.6 0 10.2 4.6 10.2 10.2v41zM683.6 457c0 5.6-4.6 10.2-10.2 10.2h-40.9c-5.6 0-10.2-4.6-10.2-10.2v-41c0-5.6 4.6-10.2 10.2-10.2h40.9c5.6 0 10.2 4.6 10.2 10.2v41z"  horiz-adv-x="1024" />

    
    <glyph glyph-name="tengxunkongjian" unicode="&#59011;" d="M697.03 488.399H350.636l228.096-39.095-244.99-199.674h371.733l-219.65 47.541zM516.294 881.067c-275.458 0-498.788-223.33-498.788-498.788 0-275.456 223.33-498.761 498.788-498.761 275.456 0 498.733 223.305 498.733 498.761 0 275.458-223.277 498.788-498.733 498.788z m324.267-409.455L713.82 364.171l42.125-270.483c-8.446-8.42-8.653-8.42-17.15-8.42L518.731 220.511 298.198 85.268c-16.892 0-18.628 0-18.628 8.42l30.338 270.483-133.687 118.321-45.702 32.439h-12.902v1.399l12.902-1.399h262.347l33.811 60.237 84.486 178.534h16.919l92.907-178.534 33.811-60.237h228.098c8.446 0 8.446 4.947 8.446-3.524l-50.782-39.795z"  horiz-adv-x="1024" />

    
    <glyph glyph-name="douban" unicode="&#58936;" d="M653.312 463.36c-94.72 0.512-189.44 0.512-284.16 0-20.48 0-28.672-9.728-29.696-29.696-1.024-11.776-0.512-23.552 0-35.328 0.512-34.304 7.168-41.472 40.96-41.984 43.52-0.512 87.552 0 131.072 0h41.472c32.768 0 66.048-0.512 98.816 0.512 24.064 0.512 32.256 9.216 33.28 33.28 0.512 13.824 0.512 27.648 0 41.472-1.536 22.528-9.728 31.744-31.744 31.744zM512 896C229.376 896 0 666.624 0 384s229.376-512 512-512 512 229.376 512 512S794.624 896 512 896zM314.368 636.928h409.088c17.408-2.048 27.136-10.752 27.648-25.088 1.024-15.872-8.704-26.624-28.16-27.136-27.648-1.024-55.296-0.512-82.944-0.512H313.856c-28.16 0-39.936 7.68-40.448 25.088-1.024 18.944 11.776 27.648 40.96 27.648z m423.424-265.728c-2.048-41.984-27.136-66.56-69.632-67.072-104.448-0.512-208.896-0.512-312.832 0-43.52 0.512-68.096 26.112-69.12 70.144-0.512 22.528-0.512 44.544 0 67.072 1.024 50.688 24.576 74.24 74.24 74.752 51.2 0.512 102.4 0 153.088 0 50.176 0 99.84 0.512 150.016 0 48.64-0.512 72.704-24.064 74.24-71.68 1.024-24.064 1.536-48.64 0-73.216z m0-240.128H296.96c-7.68 0-14.848-0.512-22.528 0-18.944 1.536-29.184 11.776-28.672 27.648 0.512 14.336 10.24 23.552 28.16 24.576 14.848 1.024 29.696 0.512 44.544 0.512h67.072c-11.264 19.456-18.944 33.28-26.624 47.104-11.264 20.992-8.192 35.328 8.192 43.52 14.336 7.168 26.112 2.048 38.4-17.92 11.776-18.944 23.04-38.4 33.792-57.856 5.632-10.752 13.312-14.848 25.6-14.848 30.72 0.512 61.952 1.024 92.672 0 13.824-0.512 21.504 5.12 27.648 16.384 11.264 20.48 22.528 40.96 35.328 60.928 12.8 19.968 31.744 22.016 44.544 6.656 8.704-10.24 7.68-21.504 1.536-32.768-4.096-7.168-8.704-14.848-12.8-22.016s-7.68-14.848-13.312-25.088c8.704-1.536 15.36-3.072 21.504-3.072 25.6-0.512 51.2 0 76.8 0 27.136-0.512 39.424-9.216 38.912-27.136 0-18.432-12.8-26.112-39.936-26.624z"  horiz-adv-x="1024" />

    
    <glyph glyph-name="fangdajing" unicode="&#58885;" d="M889.6 57.6l-192 192C742.4 300.8 768 371.2 768 448c0 179.2-140.8 320-320 320S128 627.2 128 448s140.8-320 320-320c76.8 0 147.2 25.6 198.4 70.4l192-192c12.8-12.8 32-12.8 44.8 0 12.8 12.8 12.8 38.4 6.4 51.2zM192 448c0 140.8 115.2 256 256 256s256-115.2 256-256-115.2-256-256-256-256 115.2-256 256z"  horiz-adv-x="1024" />

    
    <glyph glyph-name="new" unicode="&#59597;" d="M836.096 653.312h-686.592c-56.832 0-102.912-46.08-102.912-102.912v-232.448c0-56.832 46.08-102.912 102.912-102.912h686.592c56.832 0 102.912 46.08 102.912 102.912v232.448c0 56.832-46.08 102.912-102.912 102.912z m-527.36-339.968c-4.608 9.728-9.728 17.408-17.92 29.696l-71.68 108.544c-5.12 8.192-12.288 20.48-18.944 33.28 0.512-4.096 0.512-4.096 1.024-14.336 0.512-5.12 1.024-17.92 1.024-24.064v-91.648c0-18.944 1.024-31.744 2.048-41.984h-40.96c1.536 9.216 2.048 23.04 2.048 41.984v143.872c0 14.336-0.512 24.576-2.048 35.84h43.52c2.56-7.168 7.68-15.36 16.896-29.696l70.656-105.472c6.656-10.24 15.872-24.576 22.016-35.84-1.024 10.752-2.048 27.648-2.048 39.424v94.208c0 16.384-0.512 28.16-2.048 38.4h40.96c-1.536-11.264-2.048-21.504-2.048-38.4v-147.456c0-15.872 0.512-26.112 2.048-35.84l-44.544-0.512z m206.336 0h-87.04c-16.896 0-24.064-0.512-35.328-1.024 1.536 11.264 2.048 20.48 2.048 36.864v151.04c0 14.336-0.512 23.04-2.048 35.84 11.264-0.512 18.432-1.024 35.328-1.024h84.48c13.824 0 23.04 0.512 35.84 2.048v-36.864c-10.752 1.536-19.456 2.048-35.84 2.048h-80.384V445.44h68.096c14.336 0 24.064 0.512 36.352 2.048v-36.352c-11.264 1.536-18.944 2.048-36.352 2.048h-68.096v-66.048h83.968c15.872 0 23.552 0.512 35.84 2.048v-37.376c-10.752 1.536-19.456 1.536-36.864 1.536z m234.496 28.672l-29.696 103.936c-3.072 10.752-5.632 21.504-8.192 35.84-3.072-15.872-5.632-26.624-8.192-35.84l-29.696-103.936c-3.584-12.8-5.632-21.504-6.656-28.16h-37.376c-1.536 7.168-1.536 7.168-7.68 28.672l-44.544 160.256c-4.608 16.384-7.68 25.088-11.264 33.28h44.544c0.512-9.728 2.048-17.92 5.12-30.208l26.112-106.496c2.048-8.704 5.12-23.04 6.656-32.768 3.584 17.408 5.632 25.088 7.68 32.768l31.232 107.52c3.584 11.776 5.12 20.992 6.144 28.672h34.304c1.024-6.656 3.584-17.408 6.656-28.16l31.232-107.52c2.048-7.168 3.584-12.8 7.68-33.792 1.536 6.656 1.536 6.656 3.072 16.384 1.024 4.608 3.072 15.36 3.584 17.92l26.112 105.472c2.56 10.752 4.608 22.016 4.608 29.696h44.544c-4.096-9.728-6.656-16.896-10.752-33.28l-44.544-159.744c-2.048-7.68-3.584-12.8-4.096-15.36-2.048-7.68-2.048-7.68-3.072-13.824h-37.376c-0.512 6.656-3.072 18.432-6.144 28.672z"  horiz-adv-x="1024" />

    
    <glyph glyph-name="kongtiao" unicode="&#58956;" d="M149.333333 661.333333a42.666667 42.666667 0 0 1-42.666666-42.666666v-298.666667a42.666667 42.666667 0 0 1 42.666666-42.666667h725.333334a42.666667 42.666667 0 0 1 42.666666 42.666667V618.666667a42.666667 42.666667 0 0 1-42.666666 42.666666H149.333333z m0 42.666667h725.333334a85.333333 85.333333 0 0 0 85.333333-85.333333v-298.666667a85.333333 85.333333 0 0 0-85.333333-85.333333H149.333333a85.333333 85.333333 0 0 0-85.333333 85.333333V618.666667a85.333333 85.333333 0 0 0 85.333333 85.333333zM106.666667 384h810.666666v-42.666667H106.666667v42.666667z m661.333333 234.666667h106.666667v-42.666667h-106.666667v42.666667zM133.184 149.333333c0 19.477333 12.949333 36.586667 31.701333 41.856l11.562667-41.045333a0.832 0.832 0 0 1 0-1.621333l4.416-1.792a57.770667 57.770667 0 0 0 0-101.461334l-20.394667 37.461334a15.104 15.104 0 0 1 1.28 25.749333A43.52 43.52 0 0 0 133.184 149.333333z m170.666667 0c0 19.477333 12.949333 36.586667 31.701333 41.856l11.562667-41.045333a0.832 0.832 0 0 1 0-1.621333l4.416-1.792a57.770667 57.770667 0 0 0 0-101.461334l-20.394667 37.461334a15.104 15.104 0 0 1 1.28 25.749333A43.52 43.52 0 0 0 303.850667 149.333333z m170.666666 0c0 19.477333 12.949333 36.586667 31.701334 41.856l11.562666-41.045333a0.832 0.832 0 0 1 0-1.621333l4.416-1.792a57.770667 57.770667 0 0 0 0-101.461334l-20.394666 37.461334a15.104 15.104 0 0 1 1.28 25.749333A43.52 43.52 0 0 0 474.517333 149.333333z m192 0c0 19.477333 12.949333 36.586667 31.701334 41.856l11.562666-41.045333a0.832 0.832 0 0 1 0-1.621333l4.416-1.792a57.770667 57.770667 0 0 0 0-101.461334l-20.394666 37.461334a15.104 15.104 0 0 1 1.28 25.749333A43.52 43.52 0 0 0 666.517333 149.333333z m170.666667 0c0 19.477333 12.949333 36.586667 31.701333 41.856l11.562667-41.045333a0.832 0.832 0 0 1 0-1.621333l4.416-1.792a57.770667 57.770667 0 0 0 0-101.461334l-20.394667 37.461334a15.104 15.104 0 0 1 1.28 25.749333A43.52 43.52 0 0 0 837.184 149.333333z"  horiz-adv-x="1024" />

    
    <glyph glyph-name="fengshan" unicode="&#59160;" d="M728.822857 419.6c73.074286-8.342857 105.965714-48.8 164.571429-48.8 116.411429 0 154.662857 131.097143 116.148571 247.394286C977.142857 716.068571 876.457143 808.697143 790.731429 793.428571 647.782857 768 543.931429 644.171429 518.205714 470.217143a6 6 0 0 0-5.988571-5.108572h-0.331429a80.582857 80.582857 0 0 1-13.165714-1.142857 5.988571 5.988571 0 0 0-6.662857 4.24c-11.428571 38.4-21.942857 77.462857-15.657143 132.571429 8.342857 73.074286 48.8 105.965714 48.8 164.571428C525.2 881.794286 394.102857 920 277.805714 881.531429 179.931429 849.142857 87.302857 748.457143 102.571429 662.731429 128 519.794286 251.805714 415.942857 425.725714 390.205714a6.057143 6.057143 0 0 0 5.2-5.988571v-0.068572a80.72 80.72 0 0 1 1.142857-13.382857 5.954286 5.954286 0 0 0-4.182857-6.674285c-38.445714-11.428571-77.531429-21.988571-132.685714-15.691429-73.074286 8.342857-105.965714 48.8-164.571429 48.8-116.422857 0-154.628571-131.097143-116.16-247.394286C46.857143 51.931429 147.542857-40.697143 233.268571-25.428571c143.005714 25.485714 246.857143 149.36 272.56 323.428571a6.08 6.08 0 0 0 6 5.211429 80.72 80.72 0 0 1 13.28 1.142857 5.942857 5.942857 0 0 0 6.662858-4.182857c11.497143-38.525714 22.08-77.714286 15.771428-132.937143-8.342857-73.074286-48.8-105.965714-48.8-164.571429 0-116.411429 131.097143-154.662857 247.394286-116.148571 97.931429 32.342857 190.56 133.028571 175.291428 218.754285-25.485714 143.028571-149.382857 246.857143-323.428571 272.571429a5.988571 5.988571 0 0 0-5.12 5.988571v0.32a79.611429 79.611429 0 0 1-1.074286 13.085715 5.965714 5.965714 0 0 0 4.228572 6.628571c38.445714 11.474286 77.565714 22.034286 132.788571 15.737143z m-203.325714-73.702857c-29.028571-9.508571-55.782857 12.868571-54.011429 40.88a40.651429 40.651429 0 0 0 37.771429 37.771428c28.011429 1.771429 50.388571-24.982857 40.88-54.011428a38.64 38.64 0 0 0-24.64-24.64z"  horiz-adv-x="1024" />

    
    <glyph glyph-name="cebianlanzhankai" unicode="&#59039;" d="M42.666667 853.333333h1280a42.666667 42.666667 0 1 0 0-85.333333H42.666667a42.666667 42.666667 0 1 0 0 85.333333z m0-426.666666h938.666666a42.666667 42.666667 0 1 0 0-85.333334H42.666667a42.666667 42.666667 0 1 0 0 85.333334z m0-426.666667h1280a42.666667 42.666667 0 1 0 0-85.333333H42.666667a42.666667 42.666667 0 1 0 0 85.333333z m1092.608 244.650667V521.386667a42.666667 42.666667 0 0 0 72.874666 30.122666l138.325334-138.325333a42.666667 42.666667 0 0 0 0-60.330667l-138.325334-138.325333a42.666667 42.666667 0 0 0-72.874666 30.122667z"  horiz-adv-x="1365" />

    


  </font>
</defs>
</svg>
